<svg width="320" height="112.5" viewBox="0 0 320 112.5" class="css-1j8o68f"><defs id="SvgjsDefs1299"></defs><g id="SvgjsG1300" featurekey="symbolFeature-0" transform="matrix(1.3888888888888888,0,0,1.3888888888888888,-13.236109415690104,-19.486112064785427)" fill="#f9f2cc"><path xmlns="http://www.w3.org/2000/svg" d="M14.03,50.03l13.5,13.5l13.5-13.5l-13.5-13.5L14.03,50.03 M27.53,32.03l18,18l-18,18l-18-18L27.53,32.03" style="fill-rule: evenodd; clip-rule: evenodd;"></path><path xmlns="http://www.w3.org/2000/svg" d="M27.53,54.53l4.5-4.5l-4.5-4.5l-4.5,4.5L27.53,54.53 M18.53,50.03l9-9l9,9l-9,9L18.53,50.03" style="fill-rule: evenodd; clip-rule: evenodd;"></path><path xmlns="http://www.w3.org/2000/svg" d="M68.03,72.53l-18-18l-18,18l18,18L68.03,72.53 M72.53,72.53l-22.5,22.5l-22.5-22.5l22.5-22.5L72.53,72.53" style="fill-rule: evenodd; clip-rule: evenodd;"></path><path xmlns="http://www.w3.org/2000/svg" d="M59.03,72.53l-9-9l-9,9l9,9L59.03,72.53 M63.53,72.53l-13.5,13.5l-13.5-13.5l13.5-13.5L63.53,72.53" style="fill-rule: evenodd; clip-rule: evenodd;"></path><polyline xmlns="http://www.w3.org/2000/svg" points="54.53,72.53 50.03,77.03 45.53,72.53 50.03,68.03 54.53,72.53 " style="fill-rule: evenodd; clip-rule: evenodd;"></polyline><path xmlns="http://www.w3.org/2000/svg" d="M41.03,27.53l9,9l9-9l-9-9L41.03,27.53 M36.53,27.53l13.5-13.5l13.5,13.5l-13.5,13.5L36.53,27.53" style="fill-rule: evenodd; clip-rule: evenodd;"></path><polyline xmlns="http://www.w3.org/2000/svg" points="45.53,27.53 50.03,23.03 54.53,27.53 50.03,32.03 45.53,27.53 " style="fill-rule: evenodd; clip-rule: evenodd;"></polyline><path xmlns="http://www.w3.org/2000/svg" d="M72.53,45.53l-4.5,4.5l4.5,4.5l4.5-4.5L72.53,45.53 M81.53,50.03l-9,9l-9-9l9-9L81.53,50.03" style="fill-rule: evenodd; clip-rule: evenodd;"></path></g><g id="SvgjsG1301" featurekey="nameFeature-0" transform="matrix(1.5078407789529025,0,0,1.5078407789529025,114.57177262057394,18.71531929971085)" fill="#f9f2cc"><path d="M17.44 25.16 c3.08 0.72 5.56 3.52 5.56 7.28 c0 4.84 -3.44 7.56 -7.64 7.56 l-11.76 0 l0 -28 l10.44 0 c3.92 0 7 2.52 7 7 c0 3 -1.6 5.2 -3.6 6.16 z M4.84 13.120000000000001 l0 11.72 l9.12 0 c4.48 0 5.76 -4.04 5.76 -5.84 c0 -2.32 -1.16 -5.88 -5.76 -5.88 l-9.12 0 z M15.36 38.88 c4.36 0 6.36 -3.84 6.36 -6.44 c0 -2.4 -1.72 -6.48 -6.44 -6.48 l-10.44 0 l0 12.92 l10.52 0 z M42.480000000000004 21.2 c0.84 1.24 1.24 3.12 1.24 6.28 l0 12.52 l-0.16 0 c-0.6 0 -1.08 -0.48 -1.08 -1.08 l0 -2.56 c-0.68 0.92 -1.84 2.16 -3.48 2.96 c-1.08 0.52 -2.4 0.84 -3.76 0.84 c-2.16 0 -3.88 -0.52 -5 -1.64 c-1.12 -1.08 -1.68 -2.6 -1.68 -4.56 c0 -2.04 0.68 -3.6 2 -4.64 s3.24 -1.48 5.84 -1.48 l6.08 0 l0 -0.6 c0 -2.72 -0.32 -4.32 -1.04 -5.32 c-0.8 -1.08 -2.04 -1.56 -4.16 -1.56 c-1.48 0 -3.04 0.16 -4.76 0.52 c-1.8 0.36 -2.44 -0.6 -2.44 -0.6 c2.68 -0.8 4.76 -1.12 7.2 -1.12 c1.32 0 2.36 0.2 3.2 0.52 s1.48 0.8 2 1.52 z M38.44 38.36 c1.8 -0.84 3.2 -2.28 4.04 -3.44 l0 -6.12 l-6 0 c-2.32 0 -4.04 0.52 -5.16 1.4 c-1.04 0.84 -1.56 2.08 -1.56 3.76 c0 3.4 1.88 5.08 5.56 5.08 c1.12 0 2.28 -0.28 3.12 -0.68 z M62.88000000000001 20 c2.68 1.52 2.48 5.08 2.48 6.24 l0 13.76 l-1.2 0 l0 -14.4 c0 -1.6 -0.2 -3 -1.28 -4.08 c-0.92 -0.88 -2.28 -1.24 -4.04 -1.12 c-1.12 0.08 -2.16 0.4 -3.08 0.76 c-1.76 0.76 -3.4 1.8 -5 3.32 l0 15.52 l-1.2 0 l0 -18.68 c0 -1.88 1.2 -2 1.2 -2 l0 3.76 c0.4 -0.36 0.88 -0.76 1.48 -1.2 c2.12 -1.56 4.36 -2.52 6.52 -2.68 c1.64 -0.12 3.04 0.16 4.12 0.8 l0 0 z M76.52000000000001 29.52 l10.64 10.48 l-0.84 0 c-0.56 0 -1.08 -0.24 -1.52 -0.64 l-9.36 -9.16 l-3.12 0 l0 9.8 l-1.24 0 l0 -27.24 c0 -1.84 1.24 -1.96 1.24 -1.96 l0 18.28 l3.04 0 l8.36 -9.2 c0.32 -0.36 0.8 -0.56 1.32 -0.56 l0.72 0 z M92 40 l-1.24 0 l0 -26 c0 -1.88 1.24 -2 1.24 -2 l0 28 z M111 20 c2.68 1.52 2.48 5.08 2.48 6.24 l0 13.76 l-1.2 0 l0 -14.4 c0 -1.6 -0.2 -3 -1.28 -4.08 c-0.92 -0.88 -2.28 -1.24 -4.04 -1.12 c-1.12 0.08 -2.16 0.4 -3.08 0.76 c-1.76 0.76 -3.4 1.8 -5 3.32 l0 15.52 l-1.2 0 l0 -18.68 c0 -1.88 1.2 -2 1.2 -2 l0 3.76 c0.4 -0.36 0.88 -0.76 1.48 -1.2 c2.12 -1.56 4.36 -2.52 6.52 -2.68 c1.64 -0.12 3.04 0.16 4.12 0.8 l0 0 z M133.51999999999998 37.88 c2.04 -1 2.72 -0.44 2.72 -0.44 l-0.08 0.08 c-1.6 1.64 -4.56 2.6 -8.08 2.6 c-1.4 0 -2.72 -0.24 -3.84 -0.68 c-1.16 -0.48 -2.16 -1.2 -2.96 -2.12 c-0.76 -0.88 -1.36 -2 -1.76 -3.32 c-0.4 -1.28 -0.6 -2.72 -0.6 -4.36 c0 -3.32 0.8 -5.92 2.44 -7.72 c1.64 -1.84 4 -2.8 7.04 -2.8 c2.52 0 5.32 0.72 6.84 1.72 c0 0 -0.56 0.76 -2.76 0.12 c-1.24 -0.36 -2.72 -0.6 -4.08 -0.6 c-2.68 0 -4.76 0.8 -6.16 2.36 c-1.4 1.6 -2.08 3.92 -2.08 6.92 c0 1.52 0.16 2.84 0.52 4 s0.88 2.12 1.56 2.88 c0.64 0.8 1.48 1.36 2.44 1.76 c1 0.4 2.16 0.64 3.4 0.64 c2.16 0 4 -0.4 5.44 -1.04 z"></path></g></svg>